<?xml version="1.0" encoding="utf-8"?>
<!-- Generator: Adobe Illustrator 25.0.1, SVG Export Plug-In . SVG Version: 6.00 Build 0)  -->
<svg version="1.1" id="Capa_1" xmlns="http://www.w3.org/2000/svg" xmlns:xlink="http://www.w3.org/1999/xlink" x="0px" y="0px"
	 viewBox="0 0 620 626" style="enable-background:new 0 0 620 626;" xml:space="preserve">
<style type="text/css">
	.st0{fill:#FFFFFF;}
</style>
<g transform="translate(0.000000,626.000000) scale(0.100000,-0.100000)">
	<path class="st0" d="M2045,6001c-27-4-67-15-87-24c-21-10-44-17-53-17c-22,0-121-44-195-87c-169-97-348-287-410-433
		c-5-14-17-37-25-52c-8-14-29-68-47-120c-31-92-32-95-32-293l-1-200l113-5c73-3,117-1,122,5s5,41-1,80s-7,99-3,135s8,74,9,85
		c4,46,18,111,25,120c5,6,16,33,26,60c9,28,25,62,35,77c11,14,19,29,19,32c0,14,85,121,134,169c61,60,141,120,190,144
		c20,9,36,20,36,25c0,4,9,8,20,8s47,11,80,25c37,16,90,28,138,32c44,3,92,14,112,25c19,10,40,18,46,18s22,8,35,18c13,11,37,22,53,26
		c15,4,47,15,70,26c31,14,136,40,163,40c2,0,3,8,3,18c0,12-19,24-67,41c-62,23-85,25-263,27C2183,6007,2073,6005,2045,6001z"/>
	<path class="st0" d="M2700,5854c-88-17-210-47-235-58c-16-8-46-20-65-27s-60-28-90-46c-30-17-70-39-87-48c-46-24-204-175-259-248
		c-93-122-176-321-203-487c-6-36-11-180-10-320c0-227-2-259-18-290c-24-46-24-157,0-193c9-14,33-38,54-54c32-24,45-28,104-28
		c60,0,71,3,106,31c50,40,72,87,73,152c0,61-9,83-57,133c-26,28-34,43-31,65c5,47,37,43,91-11c62-61,79-102,79-197c0-70-3-81-35-130
		c-61-95-181-152-274-129c-89,23-163,83-208,170c-25,49-17,175,13,219c20,27,22,43,22,155c0,94-3,127-14,136c-13,11-413,34-596,34
		c-102,0-213-15-231-30c-8-6-41-16-74-22s-87-20-120-30s-79-24-102-31c-24-7-43-16-43-20s-15-11-33-14c-19-3-43-15-55-26
		s-26-20-31-20c-6,0-18-15-28-32c-17-31-18-125-19-1748c-1-1131,2-1733,9-1768c7-38,20-62,42-85c43-42,105-87,122-87c7,0,13-4,13-8
		c0-5,19-19,42-32c24-13,72-41,107-62c34-21,69-38,77-38s14-4,14-9c0-4,24-21,52-36c29-16,68-36,87-46c18-10,41-25,50-33
		s28-18,44-21c15-4,27-11,27-15s15-13,32-20c18-7,42-21,53-31s31-23,45-28c14-6,48-25,75-41c28-17,66-37,85-46c19-8,51-24,71-34
		c54-29,208-23,362,14c37,9,97,23,135,32c37,9,108,24,157,34c130,26,241,49,315,67c36,9,102,21,147,29c45,7,90,17,100,22
		s43,13,73,16c30,4,91,16,135,26c44,11,111,24,148,30s87,17,110,25c23,7,69,16,102,20s92,15,130,25c39,10,90,21,115,25
		c25,3,97,17,160,31s144,31,180,39s99,19,140,26c95,14,206,44,236,64c13,8,34,34,46,58c19,36,23,65,29,207c4,91,16,257,28,370
		s21,228,21,257c0,94,3,95,183,67c158-24,364-20,527,10c187,34,307,80,464,177c52,32,223,202,265,262c125,183,201,447,201,695
		c0,105-29,322-48,358c-5,11-14,42-21,69c-6,28-18,64-26,80c-103,222-142,288-214,367c-19,21-40,47-48,58c-13,18-113,106-180,156
		c-52,39-179,102-269,133c-127,43-213,53-421,49c-100-1-185,0-188,4c-4,4-13,39-21,79c-16,83-41,117-114,154c-48,24-207,55-305,58
		l-60,2l-3-76c-2-58,2-88,18-128c11-28,20-69,20-90c0-89-56-180-137-223c-68-36-114-42-180-23c-64,19-142,88-167,150
		c-25,58-21,142,9,201c28,57,68,99,84,89c18-11,12-61-11-90c-31-39-37-138-13-189c29-61,77-90,154-94c86-4,136,22,168,88
		c30,62,29,109-6,178c-28,56-29,62-25,168c3,60,9,125,14,144c6,19,10,110,10,202c0,147-3,180-26,270c-14,57-32,113-40,125
		s-14,28-14,35c0,20-57,124-108,198c-43,61-175,199-225,234c-12,8-40,28-62,44c-150,106-362,172-570,177
		C2784,5857,2714,5856,2700,5854z M3060,5582c262-72,494-303,571-570c19-66,23-101,23-237c-1-136-4-168-21-215l-20-55l-64,1
		c-35,0-129,6-209,12c-80,7-208,17-285,23c-77,5-178,14-225,19s-137,12-200,15c-63,2-180,12-260,20c-80,9-190,18-245,21
		c-74,5-103,10-112,22c-9,11-13,56-13,143c0,130,10,209,34,264c54,121,83,178,98,192c10,9,18,21,18,28c0,19,133,149,202,198
		c105,75,234,125,358,141C2791,5614,2986,5602,3060,5582z M4925,3885c44-15,116-51,160-80c92-60,222-190,285-285
		c54-82,145-264,155-310c4-19,13-46,20-60c19-37,55-266,55-347c0-82-35-295-54-332c-8-14-29-57-47-96c-33-67-75-127-135-190
		c-31-33-126-112-159-132c-54-33-175-85-218-93c-26-5-56-14-67-20c-10-5-88-10-175-10c-163,0-239,12-340,52c-27,11-77,27-110,35
		s-74,19-91,24c-52,15-165,10-244-12c-189-52-332-224-396-476c-14-54-29-114-34-134c-10-39-52-128-80-169c-10-14-33-50-53-80
		c-35-55-175-197-234-238c-310-216-708-241-1045-65c-26,13-52,31-59,39c-6,8-16,14-21,14c-17,0-134,98-184,153
		c-82,91-162,223-199,327c-44,122-57,195-58,330c-1,163,16,252,80,410c77,192,264,388,473,495c78,40,444,241,510,280
		c30,17,84,46,120,65c36,18,72,38,80,45c8,6,56,33,105,60c50,26,110,59,135,73s79,43,120,65s80,43,85,47c6,5,51,30,100,56
		c50,26,104,56,120,66c17,9,66,36,110,59s87,47,95,54s53,33,100,57c47,25,101,55,120,66c19,12,69,39,111,61c41,21,100,54,130,74
		c64,41,201,107,222,107c8,0,32,7,53,16c63,26,121,33,254,30C4825,3913,4858,3908,4925,3885z"/>
	<path class="st0" d="M4345,3378c-42-25-95-82-106-115c-26-81,6-173,82-228c27-21,44-25,99-25c58,0,71,4,108,31
		c152,111,78,350-107,349C4390,3390,4356,3384,4345,3378z"/>
	<path class="st0" d="M4937,3091c-16-10-41-35-55-56c-24-33-27-47-27-114c0-69,3-79,29-113c49-60,96-81,174-76c76,4,114,26,158,89
		c21,30,26,49,26,101c0,76-16,113-69,157c-35,29-42,31-123,31C4984,3110,4959,3106,4937,3091z"/>
	<path class="st0" d="M4135,2733c-62-40-88-78-93-138c-6-70,10-113,59-161c39-38,41-39,125-43l85-3l44,45c73,76,80,178,18,256
		C4313,2763,4212,2782,4135,2733z"/>
	<path class="st0" d="M4770,2572c-33-15-83-58-96-84c-17-33-18-164-1-195c19-34,86-82,124-89c55-10,113,4,152,38c59,51,71,76,71,146
		c0,88-29,137-107,176C4881,2580,4798,2585,4770,2572z"/>
	<path class="st0" d="M2355,2201c-11-5-31-21-45-36c-22-24-25-35-25-108c0-66,4-88,20-112c12-16,30-47,40-68l20-37l-25-23
		c-14-13-40-29-58-35c-51-18-120-79-133-119c-18-55-6-120,27-152c75-72,142-66,302,25l33,19l25-30c14-16,31-44,38-61
		c27-62,84-119,127-128c76-15,100-8,146,39c40,42,43,49,43,100c0,46-7,68-46,140c-25,46-43,89-40,94c4,5,35,26,71,45
		c85,48,123,81,140,123c28,67,14,116-51,173c-36,31-41,32-99,28c-33-3-74-13-90-22c-100-56-119-66-126-66c-4,0-30,37-58,83
		c-69,114-88,130-159,134C2401,2208,2366,2206,2355,2201z"/>
</g>
</svg>
